<svg xmlns="http://www.w3.org/2000/svg" width="183" height="68" viewBox="419.948 119.623 183 68">
    <path d="M494.438 150.589c-4.14 0-6.459 3.229-6.459 6.897 0 3.666 2.307 6.895 6.459 6.895 4.152 0 6.459-3.242 6.459-6.895 0-3.655-2.331-6.897-6.459-6.897m0 16.111a8.91 8.91 0 0 1-9.045-9.214c-.002-4.996 4.045-9.048 9.04-9.05 4.995-.002 9.047 4.045 9.05 9.039v.011a8.91 8.91 0 0 1-8.602 9.209c-.147.005-.295.007-.443.005M511.374 156.526a3.776 3.776 0 0 0-3.649 3.898l.007.133a3.774 3.774 0 0 0 3.642 4.03c2.173 0 3.642-1.627 3.642-4.03 0-2.404-1.469-3.958-3.618-3.958Zm.51 10.174a4.857 4.857 0 0 1-4.116-2.319v5.949a1.214 1.214 0 1 1-2.428 0v-14.569a1.215 1.215 0 0 1 1.069-1.214h.048c.671 0 1.214.544 1.214 1.214v1.008a4.857 4.857 0 0 1 4.189-2.295 5.767 5.767 0 0 1 5.59 5.938l-.006.132c.024 3.715-2.489 6.156-5.56 6.156M524.473 156.465a3.339 3.339 0 0 0-3.351 2.962h6.58a3.241 3.241 0 0 0-3.229-2.962m5.585 4.141c0 .436-.243.85-.96.85h-8.073a3.351 3.351 0 0 0 3.642 3.241 4.119 4.119 0 0 0 3.108-1.311 1.31 1.31 0 0 1 .838-.402 1.021 1.021 0 0 1 1.044.984c-.027.268-.142.52-.328.716a6.362 6.362 0 0 1-4.759 1.955 5.78 5.78 0 0 1-6.07-6.071 5.914 5.914 0 0 1 5.67-6.07h.315c3.351-.035 5.573 2.683 5.573 6.108M537.075 154.462a5.487 5.487 0 0 1 5.609 5.363v5.503a1.25 1.25 0 0 1-2.501 0v-5.573a3.096 3.096 0 0 0-6.18 0v5.573a1.256 1.256 0 1 1-2.513 0v-5.281a5.464 5.464 0 0 1 5.318-5.585M553.234 152.811l-2.78 6.774h5.56Zm3.957 9.639h-7.916l-1.541 3.266c-.232.542-.77.887-1.359.874a1.518 1.518 0 0 1-1.543-1.493c.004-.22.057-.436.159-.631l6.847-15.2c.23-.557.794-.901 1.396-.85a1.348 1.348 0 0 1 1.384.85l6.846 15.2c.1.195.154.411.159.631a1.518 1.518 0 0 1-1.505 1.53 1.411 1.411 0 0 1-1.361-.874M564.463 166.59a1.663 1.663 0 0 1-1.65-1.651v-14.921a1.64 1.64 0 0 1 1.638-1.639l.012.002a1.6 1.6 0 0 1 1.603 1.601V164.939a1.615 1.615 0 0 1-1.578 1.651h-.013M577.951 151.585h-5.694v4.856h5.694a2.429 2.429 0 0 0 2.562-2.27 1.485 1.485 0 0 0 0-.231 2.357 2.357 0 0 0-2.598-2.367Zm5.888 13.354c0 .896-.719 1.626-1.615 1.639a1.48 1.48 0 0 1-1.444-.886l-3.12-6.398h-5.403v5.645a1.626 1.626 0 1 1-3.253 0V150.25a1.626 1.626 0 0 1 1.602-1.639h6.896c4.431 0 6.337 2.197 6.337 5.353a4.855 4.855 0 0 1-2.95 4.747l2.756 5.585c.106.2.172.418.194.643M597.764 166.384h-9.967a1.65 1.65 0 0 1-1.651-1.627V150.25c0-.906.733-1.639 1.639-1.639h9.627a1.505 1.505 0 0 1 1.542 1.456 1.518 1.518 0 0 1-1.506 1.53H589.411v4.249h6.775c.84 0 1.523.678 1.529 1.518a1.517 1.517 0 0 1-1.517 1.505h-6.787v4.456h8.402a1.517 1.517 0 0 1 1.554 1.505c0 .831-.674 1.505-1.506 1.505M470.74 153.564c-.619 0-1.214 0-1.857-.097.204 1.121.306 2.259.303 3.399 0 10.56-8.561 19.121-19.121 19.121-10.56 0-19.121-8.561-19.121-19.121 0-10.56 8.561-19.121 19.121-19.121h.012c1.181 0 2.36.11 3.521.328a16.727 16.727 0 0 1-.085-1.748 17.329 17.329 0 0 1 1.214-6.459c-14.903-2.588-29.083 7.395-31.671 22.299-2.588 14.903 7.395 29.082 22.299 31.67 14.903 2.589 29.082-7.395 31.67-22.298.268-1.543.403-3.105.404-4.671a27.994 27.994 0 0 0-.364-4.516 17.25 17.25 0 0 1-6.325 1.214m5.451-15.88h-3.994v3.995a1.469 1.469 0 0 1-2.926.17v-4.189h-3.994a1.323 1.323 0 1 1 0-2.646h4.018v-3.995a1.47 1.47 0 0 1 2.926 0v3.995h3.994a1.323 1.323 0 1 1 0 2.646Zm9.409-2.852c-.05-.498-.127-.993-.231-1.482a13.837 13.837 0 0 0-.364-1.432 15.316 15.316 0 0 0-.364-1.044 14.93 14.93 0 0 0-.437-.984 11.406 11.406 0 0 0-.814-1.42c-.085-.158-.194-.304-.291-.449a15.154 15.154 0 0 0-1.821-2.222 14.81 14.81 0 0 0-4.711-3.193c-.388-.17-.789-.315-1.214-.449a14.979 14.979 0 0 0-4.613-.765h-.704a2.878 2.878 0 0 0-.656 0c-.33.015-.659.056-.983.122l-.571.109h-.073l-.522.121-.279.122c-.201.045-.4.102-.595.17l-.679.23-.498.158-.377.182-.522.219c-.162.071-.32.152-.473.243l-.376.194-.377.218a8.107 8.107 0 0 0-.777.522c-.255.195-.34.243-.51.365-.134.09-.264.187-.388.291l-.255.206-.595.522-.388.377a5.23 5.23 0 0 0-.353.376l-.194.206-.352.401-.303.389a2.967 2.967 0 0 0-.243.315 7.3 7.3 0 0 0-.352.486c-.11.17-.255.388-.377.595-.12.183-.229.374-.327.57a.474.474 0 0 0-.061.11l-.34.679-.243.522a15.026 15.026 0 0 0-1.214 5.961c0 .789.061 1.576.182 2.356 0 .267.097.509.158.801.061.291.085.388.134.57a14.676 14.676 0 0 0 .716 2.089c.097.218.194.437.303.655l.328.656c.109.218.292.51.449.777.158.267.522.752.765 1.104.279.353.559.705.862 1.032.165.183.339.358.522.522.179.161.349.331.51.51l.522.474a13.196 13.196 0 0 0 2.428 1.602c.208.122.423.231.644.328.327.17.667.316.995.449l1.032.352.522.158.522.134.546.121a15.02 15.02 0 0 0 8.693-.935c.453-.194.895-.413 1.323-.655.188-.096.37-.201.547-.316.241-.132.472-.282.692-.449a3.22 3.22 0 0 0 .412-.291l.389-.292.303-.243a4.19 4.19 0 0 0 .401-.352l.291-.267c.434-.375.84-.78 1.214-1.214l.267-.328c.041-.045.077-.094.11-.145.099-.121.193-.246.279-.377.46-.62.866-1.278 1.214-1.966.133-.243.255-.522.364-.765v-.085c.078-.166.147-.336.207-.51.06-.194.121-.34.182-.522.06-.182.218-.656.315-.984v-.084a3.51 3.51 0 0 0 .097-.389c.026-.088.047-.177.061-.267a1.62 1.62 0 0 1 .073-.352v-.134c0-.279.097-.582.133-.874a.614.614 0 0 0 0-.218 1.221 1.221 0 0 1 0-.352c.015-.19.015-.381 0-.571v-.716c.073-.595.11-1.093.11-1.578" class="mkkdsak4732"/>
</svg>
